<svg xmlns="http://www.w3.org/2000/svg" viewBox="0 0 142.2 241.22"><defs><style>.cls-1{fill:none;}.cls-1,.cls-2{stroke:#56b865;stroke-linecap:round;stroke-linejoin:round;stroke-width:7px;}.cls-2,.cls-3{fill:#56b865;}</style></defs><title>3am-updated-greenAsset 2</title><g id="Layer_2" data-name="Layer 2"><g id="Layer_5" data-name="Layer 5"><g id="exact_7px-7px-offset-stroke" data-name="exact 7px-7px-offset-stroke"><path class="cls-1" d="M56.25,237.72c-18,0-32.74-14.11-32.95-31.54-12.67-10.72-19.8-25.31-19.8-41V76.06c0-15.7,7.13-30.29,19.8-41,.21-17.43,14.91-31.55,33-31.55H86c18,0,32.74,14.12,33,31.55,12.67,10.72,19.8,25.31,19.8,41v89.11c0,15.7-7.13,30.29-19.8,41C118.69,223.61,104,237.72,86,237.72Z"/><path class="cls-1" d="M56.25,223.72c-10.45,0-19-8-19-17.92v-6.61c-12.4-8.16-19.8-20.59-19.8-34V76.06c0-13.43,7.39-25.86,19.8-34V35.42c0-9.88,8.5-17.92,19-17.92H86c10.45,0,19,8,19,17.92V42c12.41,8.16,19.8,20.59,19.8,34v89.11c0,13.43-7.4,25.86-19.8,34v6.61c0,9.88-8.5,17.92-19,17.92Z"/><path class="cls-1" d="M110.7,76.06v89.11c0,11-8,20.6-19.82,25.72a51.14,51.14,0,0,1-39.56,0c-11.85-5.12-19.82-14.72-19.82-25.72V76.06c0-11,8-20.61,19.83-25.73a51.21,51.21,0,0,1,39.54,0C102.72,55.45,110.7,65.05,110.7,76.06Z"/><path class="cls-2" d="M90.9,190.89V205.8c0,2.17-2.22,3.92-5,3.92H56.25c-2.74,0-5-1.75-5-3.92V190.89h0a51.14,51.14,0,0,0,39.56,0Z"/><path class="cls-2" d="M90.9,35.42V50.33h0a51.21,51.21,0,0,0-39.54,0h0V35.42c0-2.16,2.21-3.92,5-3.92H86C88.68,31.5,90.9,33.26,90.9,35.42Z"/><path class="cls-3" d="M85.46,142.4v7.83c-2.55-.44-5.16-.78-7.83-1-.86-.08-1.74-.13-2.61-.16v11.09c-1.3-.06-2.6-.09-3.91-.09s-2.63,0-3.92.09V149.09c-.87,0-1.75.08-2.61.16-2.67.2-5.29.54-7.84,1V142.4c2.55-.44,5.17-.78,7.84-1,.86-.07,1.74-.12,2.61-.16,1.29-.06,2.6-.09,3.92-.09s2.61,0,3.91.09c.87,0,1.75.09,2.61.16C80.3,141.62,82.91,142,85.46,142.4Z"/><path class="cls-3" d="M85.46,153.5v22.19q-3.83-.67-7.83-1V152.52Q81.63,152.82,85.46,153.5Z"/><path class="cls-3" d="M64.58,152.52V174.7c-2.67.21-5.29.54-7.84,1V153.5C59.29,153.05,61.91,152.72,64.58,152.52Z"/><path class="cls-3" d="M85.46,104.59v7.83c-2.55-.45-5.17-.78-7.84-1l-1.29-.09c-1.72-.11-3.46-.16-5.22-.16s-3.51,0-5.22.16l-1.31.09c-2.67.21-5.3.54-7.84,1v-7.83c2.54-.44,5.17-.78,7.84-1q3.21-.26,6.53-.25t6.51.25C80.29,103.81,82.91,104.15,85.46,104.59Z"/><path class="cls-3" d="M85.46,115.68v22.19c-2.55-.44-5.17-.78-7.84-1V122.53l-1.29-.1q-2.58-.15-5.22-.15t-5.22.15l-1.31.1v14.36c-2.67.2-5.3.54-7.84,1V115.68c2.54-.44,5.17-.78,7.84-1,2.14-.16,4.32-.25,6.53-.25,1.76,0,3.5,0,5.22.16l1.29.09C80.29,114.9,82.91,115.24,85.46,115.68Z"/><path class="cls-3" d="M85.46,66.78V74.6c-2.55-.44-5.17-.78-7.84-1l-1.29-.09c-1.72-.11-3.46-.16-5.22-.16s-3.51,0-5.22.16l-1.31.09c-2.67.2-5.3.54-7.84,1V66.78c2.54-.44,5.17-.78,7.84-1q3.21-.26,6.53-.26t6.51.26C80.29,66,82.91,66.34,85.46,66.78Z"/><path class="cls-3" d="M85.46,77.87v22.19c-2.55-.44-5.17-.78-7.84-1L76.33,99q-2.58-.15-5.22-.15-3.31,0-6.53.25c-2.67.2-5.3.54-7.84,1V92.22c2.54-.44,5.17-.78,7.84-1,2.14-.16,4.32-.25,6.53-.25,1.76,0,3.5.05,5.22.16l1.29.09V84.72l-1.29-.1c-1.72-.1-3.46-.16-5.22-.16s-3.51.06-5.22.16l-1.31.1a78.81,78.81,0,0,0-7.84,1V77.87c2.54-.44,5.17-.78,7.84-1q3.21-.26,6.53-.25c1.76,0,3.5,0,5.22.16l1.29.09C80.29,77.09,82.91,77.43,85.46,77.87Z"/></g></g></g></svg>