<svg xmlns="http://www.w3.org/2000/svg" viewBox="0 0 348.33 650.36"><defs><style>.cls-1{fill:none;}.cls-2{fill:#56b865;}</style></defs><title>3am-green-1offsetAsset 1</title><g id="Layer_2" data-name="Layer 2"><g id="profile-logo"><g id="Artwork_18" data-name="Artwork 18"><g id="exact_7px-7px-offset-stroke" data-name="exact 7px-7px-offset-stroke"><path class="cls-1" d="M128.87,639.68c-31.87,0-57.8-24.52-57.8-54.66V564.86C33.23,540,10.67,502.07,10.67,461.09V189.29c0-41,22.56-78.87,60.4-103.77V65.33c0-30.13,25.93-54.65,57.8-54.65h90.59c31.87,0,57.8,24.52,57.8,54.65V85.52c37.84,24.9,60.39,62.8,60.39,103.77v271.8c0,41-22.55,78.88-60.39,103.77V585c0,30.14-25.93,54.66-57.8,54.66Z"/><path class="cls-2" d="M219.46,650.36H128.87c-37.76,0-68.48-29.31-68.48-65.34V570.5C21.93,543.28,0,503.7,0,461.09V189.3c0-42.61,21.93-82.2,60.39-109.42V65.33C60.39,29.31,91.11,0,128.87,0h90.59c37.76,0,68.48,29.31,68.48,65.33V79.88c38.46,27.22,60.39,66.81,60.39,109.42V461.09c0,42.61-21.94,82.19-60.39,109.41V585C287.94,621.05,257.22,650.36,219.46,650.36Zm-90.59-629c-26,0-47.13,19.73-47.13,44V85.52a10.68,10.68,0,0,1-4.8,8.92c-35.33,23.24-55.59,57.82-55.59,94.86V461.09c0,37,20.26,71.61,55.59,94.85a10.68,10.68,0,0,1,4.8,8.92V585c0,24.25,21.14,44,47.13,44h90.59c26,0,47.13-19.73,47.13-44V564.86a10.68,10.68,0,0,1,4.8-8.92C306.72,532.7,327,498.13,327,461.09V189.3c0-37-20.26-71.62-55.59-94.86a10.68,10.68,0,0,1-4.8-8.92V65.33c0-24.25-21.14-44-47.13-44Z"/><path class="cls-2" d="M238.73,101a166.9,166.9,0,0,0-129.11,0C68.35,118.85,42.7,152.68,42.7,189.28v271.8c0,36.63,25.65,70.43,66.89,88.24a166.68,166.68,0,0,0,129.14,0c41.27-17.84,66.89-51.64,66.89-88.27V189.28C305.62,152.68,280,118.85,238.73,101Zm45.54,360.07c0,28-20.68,54.26-54,68.66a145.33,145.33,0,0,1-112.18,0c-33.31-14.4-54-40.69-54-68.66V189.28c0-27.94,20.71-54.26,54.08-68.69a145.41,145.41,0,0,1,112.09,0c33.34,14.4,54,40.72,54,68.66Z"/><path class="cls-1" d="M284.27,189.28v271.8c0,28-20.68,54.26-54,68.66a145.33,145.33,0,0,1-112.18,0c-33.31-14.4-54-40.69-54-68.66V189.28c0-27.94,20.71-54.26,54.08-68.69a145.41,145.41,0,0,1,112.09,0C263.56,135,284.27,161.34,284.27,189.28Z"/><path class="cls-2" d="M234.56,539.54V585c0,6.62-6.77,12-15.1,12H128.87c-8.36,0-15.1-5.34-15.1-12V539.54h.06a156,156,0,0,0,120.67,0Z"/><path class="cls-2" d="M219.46,607.65H128.87c-14.45,0-25.77-9.94-25.77-22.63V539.54a10.67,10.67,0,0,1,10.67-10.67,11,11,0,0,1,4.32.88,145.26,145.26,0,0,0,112.15,0,10.73,10.73,0,0,1,15,9.79V585C245.23,597.5,233.67,607.65,219.46,607.65Zm-95-22.88a6,6,0,0,0,4.42,1.53h90.59a6,6,0,0,0,4.42-1.54V554.87c-31.4,9.85-68,9.85-99.43,0Z"/><path class="cls-2" d="M234.56,65.33v45.48h-.09A151.8,151.8,0,0,0,174.16,98.7a151.75,151.75,0,0,0-60.3,12.11h-.09V65.33c0-6.58,6.74-11.95,15.1-11.95h90.59C227.79,53.38,234.56,58.75,234.56,65.33Z"/><path class="cls-2" d="M234.56,121.49a11,11,0,0,1-4.35-.89,145.59,145.59,0,0,0-112.09,0,10.56,10.56,0,0,1-4.26.89,10.75,10.75,0,0,1-10.76-10.68V65.33c0-12.48,11.56-22.63,25.77-22.63h90.59c14.21,0,25.77,10.15,25.77,22.63v45.48A10.68,10.68,0,0,1,234.56,121.49Zm0-10.68h0ZM174.16,88a167.05,167.05,0,0,1,49.72,7.47V65.61a5.93,5.93,0,0,0-4.42-1.56H128.87a5.93,5.93,0,0,0-4.42,1.55V95.5A167,167,0,0,1,174.16,88Z"/><path class="cls-2" d="M218,391.65v23.87c-7.79-1.35-15.73-2.38-23.87-3-2.64-.23-5.31-.39-8-.48v33.83c-4-.19-7.91-.28-11.93-.28s-8,.09-11.93.28V412.05c-2.67.09-5.34.25-8,.48-8.14.61-16.12,1.64-23.9,3V391.65c7.78-1.35,15.76-2.38,23.9-3,2.64-.22,5.31-.38,8-.48,3.92-.19,7.91-.29,11.93-.29s8,.1,11.93.29c2.67.1,5.34.26,8,.48C202.23,389.27,210.17,390.3,218,391.65Z"/><path class="cls-2" d="M218,425.49v67.68c-7.79-1.35-15.73-2.38-23.87-3V422.5C202.23,423.11,210.17,424.14,218,425.49Z"/><path class="cls-2" d="M154.27,422.5v67.68c-8.14.61-16.12,1.64-23.9,3V425.49C138.15,424.14,146.13,423.11,154.27,422.5Z"/><path class="cls-2" d="M218,276.32v23.86c-7.79-1.35-15.76-2.38-23.9-3l-4-.29q-7.86-.48-15.92-.48t-15.92.48l-4,.29c-8.14.61-16.15,1.64-23.9,3V276.32c7.75-1.35,15.76-2.38,23.9-3,6.53-.52,13.19-.78,19.91-.78s13.35.26,19.88.78C202.2,273.94,210.17,275,218,276.32Z"/><path class="cls-2" d="M218,310.16v67.67c-7.79-1.35-15.76-2.38-23.9-3V331l-4-.29q-7.86-.48-15.92-.48t-15.92.48l-4,.29v43.81c-8.14.61-16.15,1.64-23.9,3V310.16c7.75-1.35,15.76-2.38,23.9-3,6.53-.51,13.19-.77,19.91-.77q8.06,0,15.92.49l4,.28C202.2,307.78,210.17,308.81,218,310.16Z"/><path class="cls-2" d="M218,161v23.87c-7.79-1.35-15.76-2.38-23.9-3l-4-.29q-7.86-.48-15.92-.48t-15.92.48l-4,.29c-8.14.61-16.15,1.64-23.9,3V161c7.75-1.35,15.76-2.38,23.9-3,6.53-.51,13.19-.77,19.91-.77s13.35.26,19.88.77C202.2,158.6,210.17,159.63,218,161Z"/><path class="cls-2" d="M218,194.82V262.5c-7.79-1.35-15.76-2.38-23.9-3l-4-.29q-7.86-.48-15.92-.48c-6.72,0-13.38.25-19.91.77-8.14.61-16.15,1.64-23.9,3V238.6c7.75-1.35,15.76-2.38,23.9-3,6.53-.52,13.19-.77,19.91-.77q8.06,0,15.92.48c1.32.09,2.64.16,4,.29V215.7l-4-.29q-7.86-.48-15.92-.48t-15.92.48l-4,.29c-8.14.61-16.15,1.64-23.9,3V194.82c7.75-1.35,15.76-2.38,23.9-3,6.53-.51,13.19-.77,19.91-.77q8.06,0,15.92.48l4,.29C202.2,192.44,210.17,193.47,218,194.82Z"/></g></g></g></g></svg>