<svg xmlns="http://www.w3.org/2000/svg" viewBox="0 0 28.72 110.14"><defs><style>.cls-1{fill:#56b865;}</style></defs><title>3am-updated-green-text-onlyAsset 1</title><g id="Layer_2" data-name="Layer 2"><g id="Layer_5" data-name="Layer 5"><path class="cls-1" d="M28.72,76.86v7.82c-2.56-.44-5.16-.78-7.83-1-.86-.07-1.74-.12-2.61-.15V94.64c-1.3-.06-2.6-.1-3.92-.1s-2.62,0-3.91.1V83.55c-.87,0-1.75.08-2.61.15-2.67.2-5.29.54-7.84,1V76.86c2.55-.44,5.17-.78,7.84-1,.86-.08,1.74-.13,2.61-.16,1.29-.06,2.59-.09,3.91-.09s2.62,0,3.92.09c.87,0,1.75.08,2.61.16C23.56,76.08,26.16,76.42,28.72,76.86Z"/><path class="cls-1" d="M28.72,88v22.19c-2.56-.44-5.16-.78-7.83-1V87C23.56,87.17,26.16,87.51,28.72,88Z"/><path class="cls-1" d="M7.84,87v22.19c-2.67.2-5.29.54-7.84,1V88C2.55,87.51,5.17,87.17,7.84,87Z"/><path class="cls-1" d="M28.72,39.05v7.82c-2.56-.44-5.17-.78-7.84-1l-1.3-.09c-1.72-.11-3.46-.16-5.22-.16s-3.5,0-5.22.16l-1.3.09c-2.67.2-5.3.54-7.84,1V39.05a78.81,78.81,0,0,1,7.84-1c2.14-.17,4.32-.26,6.52-.26s4.38.09,6.52.26Q24.89,38.37,28.72,39.05Z"/><path class="cls-1" d="M28.72,50.14V72.33c-2.56-.44-5.17-.78-7.84-1V57l-1.3-.09c-1.72-.11-3.46-.16-5.22-.16s-3.5.05-5.22.16L7.84,57V71.35c-2.67.2-5.3.54-7.84,1V50.14c2.54-.44,5.17-.78,7.84-1,2.14-.17,4.32-.25,6.52-.25q2.64,0,5.22.15l1.3.1C23.55,49.36,26.16,49.7,28.72,50.14Z"/><path class="cls-1" d="M28.72,1.23V9.06c-2.56-.44-5.17-.78-7.84-1L19.58,8c-1.72-.1-3.46-.16-5.22-.16s-3.5.06-5.22.16l-1.3.1c-2.67.2-5.3.54-7.84,1V1.23C2.54.79,5.17.45,7.84.25,10,.08,12.16,0,14.36,0s4.38.08,6.52.25C23.55.45,26.16.79,28.72,1.23Z"/><path class="cls-1" d="M28.72,12.33V34.52q-3.84-.68-7.84-1l-1.3-.1c-1.72-.11-3.46-.16-5.22-.16-2.2,0-4.38.09-6.52.26a78.81,78.81,0,0,0-7.84,1V26.68c2.54-.44,5.17-.78,7.84-1,2.14-.17,4.32-.25,6.52-.25q2.64,0,5.22.15l1.3.1V19.17l-1.3-.09c-1.72-.11-3.46-.16-5.22-.16s-3.5,0-5.22.16l-1.3.09c-2.67.2-5.3.54-7.84,1V12.33a78.81,78.81,0,0,1,7.84-1c2.14-.17,4.32-.26,6.52-.26,1.76,0,3.5.06,5.22.16l1.3.1Q24.89,11.65,28.72,12.33Z"/></g></g></svg>