<svg xmlns="http://www.w3.org/2000/svg" viewBox="0 0 74.8 388.24"><defs><style>.cls-1{fill:#56b865;}</style></defs><title>work-textAsset 2</title><g id="Layer_2" data-name="Layer 2"><g id="Layer_1-2" data-name="Layer 1"><path class="cls-1" d="M55.38,73.47H52L37.66,18.19l-.21-2.87-.31,2.87L23,73.47H19.52L0,0H6.61L21,55.84l.2,2.72.21-2.72L35.56,0h3.68L53.38,55.84l.21,2.72.26-2.72L68.19,0H74.8Z"/><path class="cls-1" d="M56.64,168.4A18.12,18.12,0,0,1,47,178a17.54,17.54,0,0,1-7,1.41H34.79a17.79,17.79,0,0,1-7-1.41,18.07,18.07,0,0,1-9.63-9.61,17.54,17.54,0,0,1-1.41-7V121.93a17.61,17.61,0,0,1,1.41-7,18.1,18.1,0,0,1,9.63-9.6,17.79,17.79,0,0,1,7.05-1.41H40a17.54,17.54,0,0,1,7,1.41,18.15,18.15,0,0,1,9.61,9.6,17.61,17.61,0,0,1,1.41,7v39.45A17.54,17.54,0,0,1,56.64,168.4Zm-5.2-46.47a11.46,11.46,0,0,0-.92-4.58A12.14,12.14,0,0,0,48,113.63a12,12,0,0,0-3.72-2.51,11.46,11.46,0,0,0-4.58-.92H35.09a11.49,11.49,0,0,0-4.58.92,12.29,12.29,0,0,0-3.74,2.51,11.71,11.71,0,0,0-2.54,3.72,11.46,11.46,0,0,0-.92,4.58v39.45a11.51,11.51,0,0,0,.92,4.59,12,12,0,0,0,6.28,6.27,11.33,11.33,0,0,0,4.58.93h4.62a11.3,11.3,0,0,0,4.58-.93A11.68,11.68,0,0,0,48,169.71,12.48,12.48,0,0,0,50.52,166a11.51,11.51,0,0,0,.92-4.59Z"/><path class="cls-1" d="M53,283.32,33,252H24v31.36H17.34V209.85H40.65a17.54,17.54,0,0,1,7,1.41,18.07,18.07,0,0,1,9.61,9.63,17.74,17.74,0,0,1,1.41,7v5.95a17.74,17.74,0,0,1-1.41,7,18,18,0,0,1-9.61,9.63,17.54,17.54,0,0,1-7,1.41l19.93,31.36Zm-.87-55.39a11.46,11.46,0,0,0-.92-4.58,12.35,12.35,0,0,0-2.51-3.74,11.71,11.71,0,0,0-3.72-2.54,11.46,11.46,0,0,0-4.58-.92H24v29.51h16.4a11.46,11.46,0,0,0,4.58-.92,11.71,11.71,0,0,0,3.72-2.54,12.35,12.35,0,0,0,2.51-3.74,11.42,11.42,0,0,0,.92-4.58Z"/><path class="cls-1" d="M18.52,388.24V314.77h6.61v73.47Zm35.86,0L26.72,351.51l27.66-36.74h8.2L34.35,351.51l28.23,36.73Z"/></g></g></svg>