<svg xmlns="http://www.w3.org/2000/svg" viewBox="0 0 474.31 262.9"><defs><style>.cls-1{fill:#56b764;}</style></defs><title>footer-icon-insta-v3Asset 11</title><g id="Layer_2" data-name="Layer 2"><g id="portfolio-icons"><path class="cls-1" d="M442.29,0H32A32,32,0,0,0,0,32V230.89a32,32,0,0,0,32,32H442.29a32.06,32.06,0,0,0,32-32V32A32.06,32.06,0,0,0,442.29,0ZM453,230.89a10.67,10.67,0,0,1-10.67,10.67H32a10.68,10.68,0,0,1-10.67-10.67V32A10.68,10.68,0,0,1,32,21.34H442.29A10.67,10.67,0,0,1,453,32Z"/><path class="cls-1" d="M237.16,50.7a80.73,80.73,0,0,0-80.74,80.2c0,.18,0,.37,0,.55s0,.37,0,.55a80.75,80.75,0,1,0,80.74-81.3Zm0,140.16a59.41,59.41,0,1,1,59.41-59.41A59.41,59.41,0,0,1,237.16,190.86Z"/></g></g></svg>