<svg xmlns="http://www.w3.org/2000/svg" viewBox="0 0 474.31 262.9"><defs><style>.cls-1{fill:#56b865;}</style></defs><title>footer-icon-twitter-v3Asset 9</title><g id="Layer_2" data-name="Layer 2"><g id="portfolio-icons"><path class="cls-1" d="M442.29,0H32A32,32,0,0,0,0,32V230.89a32,32,0,0,0,32,32H442.29a32.06,32.06,0,0,0,32-32V32A32.06,32.06,0,0,0,442.29,0Zm0,21.34a10.64,10.64,0,0,0-4.15.84l-.5.22L237.15,119.59,36.66,22.4l-.5-.22A10.61,10.61,0,0,0,32,21.34ZM453,230.89a10.67,10.67,0,0,1-10.67,10.67H32a10.67,10.67,0,0,1-10.67-10.67V32a10.62,10.62,0,0,0,3.13,7.53,10.67,10.67,0,0,0,2.89,2.07h0l205.12,99.43.49.22a10.7,10.7,0,0,0,8.31,0l.49-.22L446.89,41.63h0a10.88,10.88,0,0,0,2.9-2.07A10.56,10.56,0,0,0,452.94,32a11,11,0,0,0-.45-3.11A10.43,10.43,0,0,1,453,32Z"/></g></g></svg>