<svg xmlns="http://www.w3.org/2000/svg" viewBox="0 0 474.31 262.9"><defs><style>.cls-1{fill:#56b865;}</style></defs><title>footer-icon-twitter-v3Asset 13</title><g id="Layer_2" data-name="Layer 2"><g id="portfolio-icons"><path class="cls-1" d="M442.29,0H32A32,32,0,0,0,0,32V230.89a32,32,0,0,0,32,32H442.29a32.06,32.06,0,0,0,32-32V32A32.06,32.06,0,0,0,442.29,0ZM453,230.89a10.67,10.67,0,0,1-10.67,10.67H32a10.67,10.67,0,0,1-10.67-10.67V32A10.68,10.68,0,0,1,32,21.34H442.29A10.67,10.67,0,0,1,453,32Z"/><path class="cls-1" d="M201,217.44q-.33,0-.66,0a119.86,119.86,0,0,1-64.31-19,6.81,6.81,0,0,1,4.49-12.49,77,77,0,0,0,8.72.53h.07a73.61,73.61,0,0,0,31.89-7.31,46.85,46.85,0,0,1-26.15-28.72,6.81,6.81,0,0,1,1.38-6.6l.22-.23a46.83,46.83,0,0,1-16-35.13v-.51a6.83,6.83,0,0,1,5.63-6.71,46.88,46.88,0,0,1,1.06-45.08,6.77,6.77,0,0,1,5.35-3.37,6.84,6.84,0,0,1,5.82,2.49,106.88,106.88,0,0,0,69.31,38.55,47,47,0,0,1,14.72-35.64,46.84,46.84,0,0,1,63.35-.75,73.06,73.06,0,0,0,19.8-8.11,6.8,6.8,0,0,1,9.95,7.94,46.91,46.91,0,0,1-3,7.2,6.81,6.81,0,0,1,7.57,10.32A87.68,87.68,0,0,1,321.57,95c0,.63,0,1.25,0,1.86,0,29.25-11.3,58.85-31,81.2C274.74,196,246.34,217.44,201,217.44Zm0-13.65c.21,0,.43,0,.64,0,39.89-.2,64.81-19,78.71-34.76C297.9,149.16,308,122.84,308,96.86c0-1.66,0-3.22-.1-4.71a6.79,6.79,0,0,1,2.8-6c1-.74,2-1.5,3-2.28l-1.22.15a6.81,6.81,0,0,1-4.29-12.6c.46-.28.92-.57,1.37-.87-1.45.36-2.9.69-4.37,1a6.82,6.82,0,0,1-6.28-2,33.22,33.22,0,0,0-47-1.44,33.34,33.34,0,0,0-9.6,31.7,6.8,6.8,0,0,1-7,8.34,120.48,120.48,0,0,1-79.83-35.87,33.27,33.27,0,0,0,13.93,35,6.81,6.81,0,0,1-4,12.47,46.21,46.21,0,0,1-9.58-1.3A33.33,33.33,0,0,0,180.93,141a6.81,6.81,0,0,1,.45,13.24,46.66,46.66,0,0,1-8.55,1.49A33.25,33.25,0,0,0,199,169.29a6.81,6.81,0,0,1,4.07,12.16,87.33,87.33,0,0,1-36.18,16.79A106.15,106.15,0,0,0,201,203.79Z"/></g></g></svg>