<svg xmlns="http://www.w3.org/2000/svg" viewBox="0 0 142.2 241.22"><defs><style>.cls-1{fill:#56b865;}</style></defs><title>3am-temp-logo-greenAsset 2</title><g id="Layer_2" data-name="Layer 2"><g id="Layer_2-2" data-name="Layer 2"><g id="exact_7px-7px-offset-stroke" data-name="exact 7px-7px-offset-stroke"><path class="cls-1" d="M86,241.22H56.25c-19.31,0-35.3-14.84-36.39-33.39C7,196.46,0,181.37,0,165.17V76.06C0,59.86,7,44.77,19.86,33.4,21,14.84,36.94,0,56.25,0H86c19.31,0,35.3,14.84,36.39,33.4,12.82,11.37,19.86,26.46,19.86,42.66v89.11c0,16.2-7,31.29-19.86,42.66C121.25,226.38,105.26,241.22,86,241.22ZM56.25,7C40.2,7,27,19.6,26.8,35.09a3.49,3.49,0,0,1-1.24,2.63C13.59,47.84,7,61.46,7,76.06v89.11c0,14.6,6.59,28.22,18.56,38.34a3.46,3.46,0,0,1,1.24,2.63c.19,15.48,13.4,28.08,29.45,28.08H86c16,0,29.26-12.6,29.45-28.08a3.46,3.46,0,0,1,1.24-2.63c12-10.12,18.56-23.74,18.56-38.34V76.06c0-14.6-6.59-28.22-18.56-38.34a3.49,3.49,0,0,1-1.24-2.63C115.21,19.6,102,7,86,7Z"/><path class="cls-1" d="M86,227.22H56.25c-12.38,0-22.45-9.61-22.45-21.42V201C21.19,192.11,14,179.14,14,165.17V76.06c0-14,7.19-26.95,19.8-35.87V35.42C33.8,23.61,43.87,14,56.25,14H86c12.38,0,22.45,9.61,22.45,21.42v4.77c12.61,8.92,19.8,21.9,19.8,35.87v89.11c0,14-7.19,26.94-19.8,35.87v4.76C108.4,217.61,98.33,227.22,86,227.22ZM56.25,21C47.73,21,40.8,27.47,40.8,35.42V42A3.5,3.5,0,0,1,39.22,45C27.64,52.58,21,63.92,21,76.06v89.11c0,12.14,6.64,23.48,18.22,31.09a3.5,3.5,0,0,1,1.58,2.93v6.61c0,7.95,6.93,14.42,15.45,14.42H86c8.52,0,15.45-6.47,15.45-14.42v-6.61a3.5,3.5,0,0,1,1.58-2.93c11.58-7.61,18.22-18.95,18.22-31.09V76.06c0-12.14-6.64-23.48-18.22-31.1A3.5,3.5,0,0,1,101.4,42V35.42C101.4,27.47,94.47,21,86,21Z"/><path class="cls-1" d="M71.1,198.37a53.6,53.6,0,0,1-21.18-4.27C36.4,188.26,28,177.17,28,165.17V76.06c0-12,8.41-23.1,21.94-28.94a54.71,54.71,0,0,1,42.33,0C105.79,53,114.2,64.05,114.2,76.06v89.11c0,12-8.4,23.09-21.93,28.93A53.52,53.52,0,0,1,71.1,198.37Zm0-148.51a46.35,46.35,0,0,0-18.37,3.68C41.79,58.27,35,66.89,35,76.06v89.11c0,9.16,6.79,17.79,17.71,22.51a47.67,47.67,0,0,0,36.78,0c10.93-4.72,17.71-13.35,17.71-22.51V76.06c0-9.17-6.79-17.8-17.72-22.52A46.44,46.44,0,0,0,71.1,49.86Z"/><path class="cls-1" d="M90.9,190.89V205.8c0,2.17-2.22,3.92-5,3.92H56.25c-2.74,0-5-1.75-5-3.92V190.89h0a51.14,51.14,0,0,0,39.56,0Z"/><path class="cls-1" d="M86,213.22H56.25c-4.74,0-8.45-3.26-8.45-7.42V190.89a3.5,3.5,0,0,1,3.5-3.5,3.64,3.64,0,0,1,1.42.29,47.65,47.65,0,0,0,36.77,0,3.51,3.51,0,0,1,4.91,3.21V205.8C94.4,209.89,90.61,213.22,86,213.22Zm-31.15-7.5a2,2,0,0,0,1.45.5H86a1.92,1.92,0,0,0,1.45-.51v-9.8a56,56,0,0,1-32.6,0Z"/><path class="cls-1" d="M90.9,35.42V50.33h0a51.21,51.21,0,0,0-39.54,0h0V35.42c0-2.16,2.21-3.92,5-3.92H86C88.68,31.5,90.9,33.26,90.9,35.42Z"/><path class="cls-1" d="M90.9,53.83a3.73,3.73,0,0,1-1.43-.29,47.69,47.69,0,0,0-36.74,0,3.53,3.53,0,0,1-4.93-3.21V35.42c0-4.09,3.79-7.42,8.45-7.42H86c4.66,0,8.45,3.33,8.45,7.42V50.33A3.5,3.5,0,0,1,90.9,53.83Zm0-3.5h0ZM71.1,42.86a54.8,54.8,0,0,1,16.3,2.45v-9.8A2,2,0,0,0,86,35H56.25a2,2,0,0,0-1.45.51v9.8A54.8,54.8,0,0,1,71.1,42.86Z"/><path class="cls-1" d="M69.47,77.72a3.81,3.81,0,0,0,.54,0h.37a3.31,3.31,0,0,0,2.38-.87,3,3,0,0,0,.91-2.26,2.91,2.91,0,0,0-.85-2.18,3,3,0,0,0-2.2-.83,3,3,0,0,0-2.3.95A3.51,3.51,0,0,0,67.45,75H60.29a12.79,12.79,0,0,1,1.16-4.16,10,10,0,0,1,2.28-3.07A9.41,9.41,0,0,1,67,65.9a12.24,12.24,0,0,1,4.12-.65,12.47,12.47,0,0,1,4,.61,9.13,9.13,0,0,1,3.09,1.74,7.68,7.68,0,0,1,2,2.73,8.85,8.85,0,0,1,.7,3.59,6.79,6.79,0,0,1-.81,3.5,7.44,7.44,0,0,1-2.32,2.36,6.63,6.63,0,0,1,3.58,2.55,7.72,7.72,0,0,1,1.29,4.54A9.08,9.08,0,0,1,79.31,94a11.28,11.28,0,0,1-3.72,2,15.18,15.18,0,0,1-4.73.71,14,14,0,0,1-6.22-1.35,10.09,10.09,0,0,1-4.43-4.28,8.28,8.28,0,0,1-1-2.61,13,13,0,0,1-.26-2.65h7.68a4.41,4.41,0,0,0,1.23,3.19,4.31,4.31,0,0,0,3.09,1.08,3.76,3.76,0,0,0,3-1.1,4.08,4.08,0,0,0,1-2.74,3.68,3.68,0,0,0-1.15-2.93,4.06,4.06,0,0,0-2.73-1,4.59,4.59,0,0,0-.76.06l-.79.14Z"/><path class="cls-1" d="M76.64,130.35H65.55l-1.78,5.19H55.49l11.37-29.86h8.47L86.7,135.54H78.42Zm-2.06-5.9-3.48-9.94-3.49,9.94Z"/><path class="cls-1" d="M52.38,175.14l5.07-29.86h7.69l6,15.92,5.94-15.92h7.68l5.07,29.86H82.08L79.51,158l-7.05,17.19H69.37L62.68,158l-2.57,17.19Z"/></g></g></g></svg>