<svg xmlns="http://www.w3.org/2000/svg" viewBox="0 0 223 223"><title>insta-icon-1Asset 6</title><g id="Layer_2" data-name="Layer 2"><g id="Layer_1-2" data-name="Layer 1"><path d="M186.9,10.19A26,26,0,0,1,212.81,36.1V186.9a26,26,0,0,1-25.91,25.91H36.1A26,26,0,0,1,10.19,186.9V36.1A26,26,0,0,1,36.1,10.19H186.9M186.9,0H36.1A36.21,36.21,0,0,0,0,36.1V186.9A36.21,36.21,0,0,0,36.1,223H186.9A36.21,36.21,0,0,0,223,186.9V36.1A36.21,36.21,0,0,0,186.9,0Z"/><path d="M111.78,55.57a55.66,55.66,0,1,1-55.66,55.65,55.72,55.72,0,0,1,55.66-55.65m0-10.2a65.85,65.85,0,1,0,65.85,65.85,65.85,65.85,0,0,0-65.85-65.85Z"/></g></g></svg>