<svg xmlns="http://www.w3.org/2000/svg" viewBox="0 0 229 229"><defs><style>.cls-1{fill:#56b865;}</style></defs><title>footer-iconAsset 8</title><g id="Layer_2" data-name="Layer 2"><g id="Layer_1-2" data-name="Layer 1"><path class="cls-1" d="M221.31,14.52a37.55,37.55,0,0,0-7.48-7.31A36.8,36.8,0,0,0,191.93,0H37.07A36.83,36.83,0,0,0,14.85,7.45a37.59,37.59,0,0,0-7.4,7.4A36.83,36.83,0,0,0,0,37.07V191.93A37.18,37.18,0,0,0,37.07,229H191.93A37.18,37.18,0,0,0,229,191.93V37.07A36.93,36.93,0,0,0,221.31,14.52Zm-2.78,177.41a26.7,26.7,0,0,1-26.6,26.6H37.07a26.7,26.7,0,0,1-26.6-26.6V37.07A26.33,26.33,0,0,1,15,22.35a27.14,27.14,0,0,1,7.4-7.4,26.33,26.33,0,0,1,14.72-4.48H191.93a26.29,26.29,0,0,1,14.38,4.25A27.31,27.31,0,0,1,213.82,22a26.27,26.27,0,0,1,4.71,15.06Z"/><path class="cls-1" d="M221.31,14.52,117.92,117.92a5.24,5.24,0,0,1-7.4,0L15,22.35l-7.5-7.5a37.59,37.59,0,0,1,7.4-7.4l7.5,7.5,91.87,91.86,92.09-92.09,7.52-7.51A37.55,37.55,0,0,1,221.31,14.52Z"/></g></g></svg>