<svg xmlns="http://www.w3.org/2000/svg" viewBox="0 0 474.33 262.92"><defs><style>.cls-1{fill:#56b865;}</style></defs><title>footer-icon-twitter-v2Asset 8</title><g id="Layer_2" data-name="Layer 2"><g id="portfolio-icons"><path class="cls-1" d="M13,66.89A163.51,163.51,0,0,0,0,131.46,163.47,163.47,0,0,0,13,196c17.85,41.27,51.67,66.92,88.28,66.92h271.8c36.63,0,70.42-25.65,88.24-66.89a162.7,162.7,0,0,0,13-64.57,163.2,163.2,0,0,0-13-64.57C443.49,25.62,409.7,0,373.07,0H101.27C64.66,0,30.84,25.65,13,66.89ZM373.07,21.35c28,0,54.26,20.68,68.66,54A141.52,141.52,0,0,1,453,131.46a141.56,141.56,0,0,1-11.25,56.09c-14.4,33.31-40.69,54-68.66,54H101.27c-27.94,0-54.27-20.71-68.69-54.08a141.87,141.87,0,0,1-11.23-56A141.58,141.58,0,0,1,32.61,75.4c14.39-33.34,40.72-54,68.66-54Z"/><path class="cls-1" d="M203.52,211.48c-.21,0-.41,0-.62,0a111.46,111.46,0,0,1-59.84-17.69,6.33,6.33,0,0,1,4.18-11.62,68.69,68.69,0,0,0,8.11.49h.07a68.66,68.66,0,0,0,29.68-6.79,43.6,43.6,0,0,1-24.34-26.73,6.31,6.31,0,0,1,1.29-6.14,2.09,2.09,0,0,1,.2-.22,43.65,43.65,0,0,1-14.85-32.7v-.47a6.35,6.35,0,0,1,5.25-6.24,43.6,43.6,0,0,1,1-41.95A6.33,6.33,0,0,1,164,60.57a99.49,99.49,0,0,0,64.5,35.87,43.75,43.75,0,0,1,13.7-33.16,43.57,43.57,0,0,1,59-.7A67.86,67.86,0,0,0,319.6,55a6.34,6.34,0,0,1,9.27,7.39,43.85,43.85,0,0,1-2.8,6.7,6.33,6.33,0,0,1,7,9.6,81.3,81.3,0,0,1-17.39,18.82c0,.58,0,1.16,0,1.73,0,27.22-10.52,54.77-28.86,75.57C272.14,191.56,245.72,211.48,203.52,211.48Zm0-12.7a5.68,5.68,0,0,1,.59,0c37.12-.18,60.32-17.67,73.26-32.35a103.14,103.14,0,0,0,25.69-67.19c0-1.54,0-3-.1-4.38a6.33,6.33,0,0,1,2.61-5.56c.95-.68,1.88-1.39,2.78-2.12l-1.13.14a6.34,6.34,0,0,1-4-11.73l1.28-.8c-1.35.33-2.7.64-4.07.91a6.34,6.34,0,0,1-5.84-1.88A30.91,30.91,0,0,0,242,102a6.33,6.33,0,0,1-6.49,7.76,112.18,112.18,0,0,1-74.3-33.38,31,31,0,0,0,13,32.58,6.34,6.34,0,0,1-3.71,11.6,43.12,43.12,0,0,1-8.91-1.2,31,31,0,0,0,23.32,20.95,6.34,6.34,0,0,1,.41,12.32,43.68,43.68,0,0,1-7.95,1.39,30.89,30.89,0,0,0,24.36,12.64,6.34,6.34,0,0,1,3.8,11.32,81.37,81.37,0,0,1-33.67,15.63,98.83,98.83,0,0,0,31.71,5.16Z"/></g></g></svg>