<svg xmlns="http://www.w3.org/2000/svg" viewBox="0 0 285.59 158.3"><defs><style>.cls-1{fill:#56b865;}.cls-2{fill:none;}</style></defs><title>footer-icon-mail-v2Asset 2</title><g id="Layer_2" data-name="Layer 2"><g id="profile-logo"><path class="cls-1" d="M7.82,40.27A98.57,98.57,0,0,0,0,79.15,98.5,98.5,0,0,0,7.82,118C18.57,142.86,38.93,158.3,61,158.3H224.62c22,0,42.4-15.44,53.12-40.27a97.82,97.82,0,0,0,7.85-38.88,98.19,98.19,0,0,0-7.83-38.88C267,15.43,246.67,0,224.62,0H61C38.93,0,18.57,15.44,7.82,40.27Zm216.8-27.41c16.84,0,32.67,12.45,41.33,32.52a85.08,85.08,0,0,1,6.78,33.77A85.15,85.15,0,0,1,266,112.92c-8.66,20.06-24.49,32.53-41.33,32.53H61c-16.82,0-32.67-12.47-41.36-32.56a85.61,85.61,0,0,1-6.75-33.74A85.28,85.28,0,0,1,19.63,45.4C28.3,25.32,44.15,12.86,61,12.86Z"/><path class="cls-1" d="M223.21,11,147.34,83.69a6.43,6.43,0,0,1-9.09,0L62.38,11a6.43,6.43,0,1,1,9.09-9.09L142.8,70.24,214.12,1.88A6.43,6.43,0,1,1,223.21,11Z"/><line class="cls-2" x1="12.86" y1="79.15" x2="272.73" y2="79.15"/></g></g></svg>