<svg xmlns="http://www.w3.org/2000/svg" viewBox="0 0 474.33 262.92"><defs><style>.cls-1{fill:#56b865;}.cls-2{fill:#56b764;}</style></defs><title>footer-icon-insta-v2Asset 7</title><g id="Layer_2" data-name="Layer 2"><g id="portfolio-icons"><path class="cls-1" d="M13,66.89A163.51,163.51,0,0,0,0,131.46,163.47,163.47,0,0,0,13,196c17.85,41.27,51.67,66.92,88.28,66.92h271.8c36.63,0,70.42-25.65,88.24-66.89a162.7,162.7,0,0,0,13-64.57,163.2,163.2,0,0,0-13-64.57C443.49,25.62,409.7,0,373.07,0H101.27C64.66,0,30.84,25.65,13,66.89ZM373.07,21.35c28,0,54.26,20.68,68.66,54A141.52,141.52,0,0,1,453,131.46a141.56,141.56,0,0,1-11.25,56.09c-14.4,33.31-40.69,54-68.66,54H101.27c-27.94,0-54.27-20.71-68.69-54.08a141.87,141.87,0,0,1-11.23-56A141.58,141.58,0,0,1,32.61,75.4c14.39-33.34,40.72-54,68.66-54Z"/><path class="cls-2" d="M237.16,50.72a80.74,80.74,0,0,0-80.74,80.19c0,.18,0,.37,0,.55s0,.37,0,.55a80.75,80.75,0,1,0,80.74-81.29Zm0,140.14a59.4,59.4,0,1,1,59.4-59.4A59.39,59.39,0,0,1,237.16,190.86Z"/></g></g></svg>