<svg xmlns="http://www.w3.org/2000/svg" viewBox="0 0 474.33 262.92"><defs><style>.cls-1{fill:#56b865;}</style></defs><title>footer-icon-mail-v2Asset 3</title><g id="Layer_2" data-name="Layer 2"><g id="profile-logo"><path class="cls-1" d="M13,66.89A163.51,163.51,0,0,0,0,131.46,163.47,163.47,0,0,0,13,196c17.85,41.27,51.67,66.92,88.28,66.92h271.8c36.63,0,70.42-25.65,88.24-66.89a162.7,162.7,0,0,0,13-64.57,163.2,163.2,0,0,0-13-64.57C443.49,25.62,409.7,0,373.07,0H101.27C64.66,0,30.84,25.65,13,66.89ZM373.07,21.35c28,0,54.26,20.68,68.66,54A141.52,141.52,0,0,1,453,131.46a141.56,141.56,0,0,1-11.25,56.09c-14.4,33.31-40.69,54-68.66,54H101.27c-27.94,0-54.27-20.71-68.69-54.08a141.87,141.87,0,0,1-11.23-56A141.58,141.58,0,0,1,32.61,75.4c14.39-33.34,40.72-54,68.66-54Z"/><path class="cls-1" d="M365.5,18.23,244.71,139a10.68,10.68,0,0,1-15.1,0L108.83,18.23a10.67,10.67,0,0,1,15.09-15.1L237.16,116.37,350.4,3.13a10.68,10.68,0,1,1,15.1,15.1Z"/></g></g></svg>