<svg xmlns="http://www.w3.org/2000/svg" viewBox="0 0 245 245"><title>twitter-icon-1Asset 5</title><g id="Layer_2" data-name="Layer 2"><g id="Layer_1-2" data-name="Layer 1"><path d="M205.34,11.2A28.5,28.5,0,0,1,233.8,39.66V205.34a28.5,28.5,0,0,1-28.46,28.46H39.66A28.5,28.5,0,0,1,11.2,205.34V39.66A28.5,28.5,0,0,1,39.66,11.2H205.34m0-11.2H39.66A39.78,39.78,0,0,0,0,39.66V205.34A39.78,39.78,0,0,0,39.66,245H205.34A39.78,39.78,0,0,0,245,205.34V39.66A39.78,39.78,0,0,0,205.34,0Z"/><path d="M92.62,193.93l-.54,0A98.43,98.43,0,0,1,39.2,178.27,5.6,5.6,0,0,1,42.89,168a61.33,61.33,0,0,0,7.17.44h.06a60.56,60.56,0,0,0,26.22-6,38.55,38.55,0,0,1-21.51-23.62A5.62,5.62,0,0,1,56,133.38l.18-.19A38.52,38.52,0,0,1,43,104.3v-.42a5.58,5.58,0,0,1,2.77-4.83,5.79,5.79,0,0,1,1.87-.69,38.54,38.54,0,0,1,.86-37.08,5.6,5.6,0,0,1,9.19-.72,87.9,87.9,0,0,0,57,31.71A38.65,38.65,0,0,1,126.83,63a38.52,38.52,0,0,1,52.1-.62,59.88,59.88,0,0,0,16.28-6.67,5.6,5.6,0,0,1,8.19,6.53,38.49,38.49,0,0,1-2.47,5.92,5.6,5.6,0,0,1,6.23,8.49,72.58,72.58,0,0,1-15.37,16.63v1.53a102.46,102.46,0,0,1-25.5,66.78C153.27,176.32,129.92,193.93,92.62,193.93Zm0-11.22.53,0c32.81-.16,53.3-15.61,64.74-28.59a91.09,91.09,0,0,0,22.7-59.37c0-1.37,0-2.65-.08-3.87a5.61,5.61,0,0,1,2.3-4.92c.84-.6,1.66-1.23,2.46-1.87l-1,.12a5.59,5.59,0,0,1-3.53-10.36c.38-.23.75-.47,1.12-.72-1.19.3-2.38.57-3.59.81a5.62,5.62,0,0,1-5.16-1.66,27.32,27.32,0,0,0-38.61-1.19,27.42,27.42,0,0,0-7.9,26.08,5.6,5.6,0,0,1-5.73,6.86A99.14,99.14,0,0,1,55.21,74.54a27.38,27.38,0,0,0,11.46,28.8,5.6,5.6,0,0,1-3.28,10.25,38.8,38.8,0,0,1-7.88-1.06A27.41,27.41,0,0,0,76.12,131a5.6,5.6,0,0,1,.37,10.89,38.2,38.2,0,0,1-7,1.23A27.32,27.32,0,0,0,91,154.33a5.6,5.6,0,0,1,3.36,10,71.83,71.83,0,0,1-29.76,13.81,87.44,87.44,0,0,0,28,4.57Z"/></g></g></svg>